<?xml version="1.0" encoding="iso-8859-1"?>
<!-- Generator: Adobe Illustrator 17.1.0, SVG Export Plug-In . SVG Version: 6.00 Build 0)  -->
<!DOCTYPE svg PUBLIC "-//W3C//DTD SVG 1.1//EN" "http://www.w3.org/Graphics/SVG/1.1/DTD/svg11.dtd">
<svg version="1.1" id="Layer_1" xmlns="http://www.w3.org/2000/svg" xmlns:xlink="http://www.w3.org/1999/xlink" x="0px" y="0px"
	 viewBox="0 0 254.667 254.667" style="enable-background:new 0 0 254.667 254.667;" xml:space="preserve">
<path style="fill:none;stroke:#0686B0;stroke-width:15;stroke-miterlimit:10;" d="M244.333,202.151
	c0,23.665-19.184,42.849-42.849,42.849H52.515c-23.665,0-42.849-19.184-42.849-42.849V53.182c0-23.665,19.184-42.849,42.849-42.849
	h148.97c23.665,0,42.849,19.184,42.849,42.849V202.151z"/>
<path style="fill:#009FD1;" d="M240.333,199.612c0,22.858-18.53,41.388-41.388,41.388H55.054c-22.858,0-41.388-18.53-41.388-41.388
	V55.721c0-22.858,18.53-41.388,41.388-41.388h143.891c22.858,0,41.388,18.53,41.388,41.388V199.612z"/>
<g>
	<defs>
		<path id="SVGID_1_" d="M244.333,202.151c0,23.665-19.184,42.849-42.849,42.849H52.515c-23.665,0-42.849-19.184-42.849-42.849
			V53.182c0-23.665,19.184-42.849,42.849-42.849h148.97c23.665,0,42.849,19.184,42.849,42.849V202.151z"/>
	</defs>
	<clipPath id="SVGID_2_">
		<use xlink:href="#SVGID_1_"  style="overflow:visible;"/>
	</clipPath>
	<g style="display:none;opacity:0.08;clip-path:url(#SVGID_2_);">
		<line style="display:inline;fill:none;stroke:#FFFFFF;stroke-miterlimit:10;" x1="276.925" y1="0.784" x2="7.308" y2="0.784"/>
		<line style="display:inline;fill:none;stroke:#FFFFFF;stroke-miterlimit:10;" x1="276.925" y1="30.129" x2="7.308" y2="30.129"/>
		<line style="display:inline;fill:none;stroke:#FFFFFF;stroke-miterlimit:10;" x1="276.925" y1="59.473" x2="7.308" y2="59.473"/>
		<line style="display:inline;fill:none;stroke:#FFFFFF;stroke-miterlimit:10;" x1="276.925" y1="88.817" x2="7.308" y2="88.817"/>
		
			<line style="display:inline;fill:none;stroke:#FFFFFF;stroke-miterlimit:10;" x1="276.925" y1="118.162" x2="7.308" y2="118.162"/>
		
			<line style="display:inline;fill:none;stroke:#FFFFFF;stroke-miterlimit:10;" x1="276.925" y1="147.506" x2="7.308" y2="147.506"/>
		<line style="display:inline;fill:none;stroke:#FFFFFF;stroke-miterlimit:10;" x1="276.925" y1="176.85" x2="7.308" y2="176.85"/>
		
			<line style="display:inline;fill:none;stroke:#FFFFFF;stroke-miterlimit:10;" x1="276.925" y1="206.194" x2="7.308" y2="206.194"/>
		
			<line style="display:inline;fill:none;stroke:#FFFFFF;stroke-miterlimit:10;" x1="276.925" y1="235.539" x2="7.308" y2="235.539"/>
	</g>
	<g style="display:none;opacity:0.08;clip-path:url(#SVGID_2_);">
		<line style="display:inline;fill:none;stroke:#FFFFFF;stroke-miterlimit:10;" x1="6.776" y1="-7.142" x2="6.776" y2="262.475"/>
		<line style="display:inline;fill:none;stroke:#FFFFFF;stroke-miterlimit:10;" x1="36.12" y1="-7.142" x2="36.12" y2="262.475"/>
		<line style="display:inline;fill:none;stroke:#FFFFFF;stroke-miterlimit:10;" x1="65.465" y1="-7.142" x2="65.465" y2="262.475"/>
		<line style="display:inline;fill:none;stroke:#FFFFFF;stroke-miterlimit:10;" x1="94.809" y1="-7.142" x2="94.809" y2="262.475"/>
		
			<line style="display:inline;fill:none;stroke:#FFFFFF;stroke-miterlimit:10;" x1="124.153" y1="-7.142" x2="124.153" y2="262.475"/>
		
			<line style="display:inline;fill:none;stroke:#FFFFFF;stroke-miterlimit:10;" x1="153.497" y1="-7.142" x2="153.497" y2="262.475"/>
		
			<line style="display:inline;fill:none;stroke:#FFFFFF;stroke-miterlimit:10;" x1="182.842" y1="-7.142" x2="182.842" y2="262.475"/>
		
			<line style="display:inline;fill:none;stroke:#FFFFFF;stroke-miterlimit:10;" x1="212.186" y1="-7.142" x2="212.186" y2="262.475"/>
		<line style="display:inline;fill:none;stroke:#FFFFFF;stroke-miterlimit:10;" x1="241.53" y1="-7.142" x2="241.53" y2="262.475"/>
	</g>
	<polygon style="clip-path:url(#SVGID_2_);fill:#0686B0;" points="298.484,199.118 177.484,281.343 61.925,165.784 182.925,83.559 	
		"/>
</g>
<g>
	<path style="fill:#FFFFFF;" d="M41.5,127.667c0,0,25.333-68.893,83.107-68.893c62.559,0,87.893,68.893,87.893,68.893
		s-25.333,68.893-87.893,68.893C60.5,196.559,41.5,127.667,41.5,127.667z"/>
	<g>
		<g>
			<defs>
				<path id="SVGID_3_" d="M69.6,127.756c0-29.823,24.275-51.58,54-54c31.207-2.541,54.937,22.457,54,54
					c-0.885,29.81-24.177,54-54,54S69.6,157.579,69.6,127.756z"/>
			</defs>
			<clipPath id="SVGID_4_">
				<use xlink:href="#SVGID_3_"  style="overflow:visible;"/>
			</clipPath>
			<g style="clip-path:url(#SVGID_4_);">
				<path style="fill:#0686B0;stroke:#009FD1;stroke-miterlimit:10;" d="M139.695,99.877c-2.811-8.569-8.299-16.286-16.096-21.787
					c-1.073-0.757-2.182-1.478-3.342-2.147c-9.28-5.358-19.72-6.87-29.488-5.05c-11.981,2.232-22.953,9.481-29.524,20.863
					c-6.571,11.382-7.364,24.508-3.306,36c3.309-9.37,9.838-17.654,19.118-23.012c1.159-0.669,2.339-1.27,3.53-1.82
					c8.662-4.001,18.089-4.896,26.916-3.046c5.75,1.205,11.238,3.577,16.096,7.007c2.881,2.035,5.537,4.443,7.891,7.203
					c1.689,1.98,3.231,4.133,4.58,6.468s2.441,4.747,3.312,7.2c1.213-3.42,1.971-6.923,2.293-10.436
					C142.217,111.398,141.527,105.459,139.695,99.877z"/>
				<path style="fill:#0686B0;stroke:#009FD1;stroke-miterlimit:10;" d="M189.259,127.756c-3.309,9.37-9.838,17.654-19.118,23.012
					c-1.159,0.669-2.339,1.27-3.53,1.82c-8.662,4.001-18.089,4.896-26.916,3.046c-5.75-1.205-11.238-3.577-16.096-7.007
					c-2.881-2.035-5.537-4.443-7.891-7.203c-1.689-1.98-3.231-4.133-4.58-6.468s-2.441-4.747-3.312-7.2
					c-1.213,3.42-1.971,6.923-2.293,10.436c-0.542,5.922,0.148,11.861,1.98,17.443c2.811,8.569,8.299,16.286,16.096,21.787
					c1.073,0.757,2.182,1.478,3.341,2.147c9.28,5.358,19.72,6.87,29.488,5.05c11.981-2.232,22.953-9.481,29.524-20.863
					S193.317,139.248,189.259,127.756z"/>
				<path style="fill:#0686B0;stroke:#009FD1;stroke-miterlimit:10;" d="M156.43,70.893c-7.923-9.26-19.687-15.137-32.83-15.137
					s-24.906,5.877-32.83,15.137c9.769-1.819,20.208-0.307,29.488,5.05c1.159,0.669,2.269,1.391,3.342,2.147
					c7.796,5.501,13.284,13.218,16.096,21.787c1.831,5.582,2.521,11.521,1.98,17.443c-0.321,3.513-1.079,7.016-2.293,10.436
					c-0.87,2.453-1.963,4.865-3.312,7.2s-2.89,4.488-4.58,6.468c3.568-0.659,6.981-1.754,10.184-3.232
					c5.399-2.492,10.198-6.059,14.116-10.436c6.015-6.719,9.954-15.33,10.82-24.833c0.119-1.307,0.189-2.629,0.189-3.967
					C166.8,88.24,162.89,78.443,156.43,70.893z"/>
				<path style="fill:#0686B0;stroke:#009FD1;stroke-miterlimit:10;" d="M126.941,179.568c-1.159-0.669-2.269-1.391-3.341-2.147
					c-7.796-5.501-13.284-13.218-16.096-21.787c-1.831-5.582-2.521-11.521-1.98-17.443c0.321-3.513,1.079-7.016,2.293-10.436
					c0.871-2.453,1.963-4.865,3.312-7.2s2.89-4.487,4.58-6.468c-3.568,0.659-6.981,1.754-10.184,3.232
					c-5.399,2.492-10.198,6.059-14.116,10.436c-6.015,6.719-9.954,15.33-10.82,24.833c-0.119,1.307-0.189,2.629-0.189,3.967
					c0,10.716,3.91,20.512,10.37,28.063c7.923,9.26,19.687,15.137,32.83,15.137s24.907-5.877,32.83-15.137
					C146.661,186.438,136.222,184.926,126.941,179.568z"/>
				<path style="fill:#0686B0;stroke:#009FD1;stroke-miterlimit:10;" d="M185.954,91.756c-6.571-11.382-17.543-18.631-29.524-20.863
					c6.46,7.55,10.37,17.347,10.37,28.063c0,1.338-0.07,2.66-0.189,3.967c-0.866,9.502-4.805,18.113-10.82,24.833
					c-3.918,4.377-8.717,7.944-14.116,10.436c-3.203,1.478-6.616,2.573-10.184,3.232c-2.56,0.473-5.195,0.732-7.891,0.732
					s-5.331-0.259-7.891-0.732c2.355,2.761,5.01,5.169,7.891,7.203c4.857,3.43,10.346,5.802,16.096,7.007
					c8.827,1.85,18.254,0.956,26.916-3.046c1.192-0.55,2.371-1.151,3.53-1.82c9.28-5.358,15.809-13.643,19.118-23.012
					C193.317,116.264,192.525,103.138,185.954,91.756z"/>
				<path style="fill:#0686B0;stroke:#009FD1;stroke-miterlimit:10;" d="M123.6,106.884c-4.857-3.43-10.346-5.802-16.096-7.007
					c-8.827-1.85-18.254-0.956-26.916,3.046c-1.192,0.55-2.371,1.151-3.53,1.82c-9.28,5.358-15.809,13.643-19.118,23.012
					c-4.058,11.492-3.266,24.618,3.306,36s17.543,18.631,29.524,20.863c-6.46-7.55-10.37-17.347-10.37-28.063
					c0-1.338,0.07-2.66,0.189-3.967c0.866-9.502,4.805-18.113,10.82-24.833c3.918-4.377,8.717-7.944,14.116-10.436
					c3.203-1.478,6.616-2.573,10.184-3.232c2.56-0.473,5.195-0.732,7.891-0.732s5.331,0.259,7.891,0.732
					C129.136,111.327,126.481,108.919,123.6,106.884z"/>
				<path d="M139.382,127.756c-0.87-2.453-1.963-4.865-3.312-7.2s-2.89-4.487-4.58-6.468c-2.56-0.473-5.195-0.732-7.891-0.732
					s-5.331,0.259-7.891,0.732c-1.689,1.98-3.231,4.133-4.58,6.468s-2.441,4.747-3.312,7.2c0.871,2.453,1.963,4.865,3.312,7.2
					s2.89,4.488,4.58,6.468c2.56,0.473,5.195,0.732,7.891,0.732s5.331-0.259,7.891-0.732c1.689-1.98,3.231-4.133,4.58-6.468
					S138.512,130.209,139.382,127.756z"/>
			</g>
			<use xlink:href="#SVGID_3_"  style="overflow:visible;fill:none;stroke:#009FD1;stroke-width:6;stroke-miterlimit:10;"/>
		</g>
	</g>
	<ellipse transform="matrix(-0.6 0.8 -0.8 -0.6 241.2676 89.7351)" style="fill:#FFFFFF;" cx="98.2" cy="105.184" rx="4.5" ry="9"/>
	<circle cx="123.925" cy="126.784" r="18"/>
	<circle style="fill:#FFFFFF;" cx="113.5" cy="117.784" r="9"/>
</g>
</svg>
