<?xml version="1.0" encoding="iso-8859-1"?>
<!-- Generator: Adobe Illustrator 17.1.0, SVG Export Plug-In . SVG Version: 6.00 Build 0)  -->
<!DOCTYPE svg PUBLIC "-//W3C//DTD SVG 1.1//EN" "http://www.w3.org/Graphics/SVG/1.1/DTD/svg11.dtd">
<svg version="1.1" id="Layer_1" xmlns="http://www.w3.org/2000/svg" xmlns:xlink="http://www.w3.org/1999/xlink" x="0px" y="0px"
	 viewBox="0 0 400 400" style="enable-background:new 0 0 400 400;" xml:space="preserve">
<g>
	<path style="fill:#FFFFFF;" d="M118.523,132.597c1.186-0.443,2.596-0.619,4.155-0.559c3.614-0.387,7.262-0.584,10.941-0.584
		c7.039,0,14.109,0.733,21.016,2.182c13.782,2.887,26.596,8.466,38.086,16.58c2.695,1.903,5.264,3.975,7.76,6.132
		c14.615,2.695,26.552,12.928,31.686,26.526c0.092-0.544,0.202-1.085,0.284-1.63c0.29-1.916,0.534-3.839,0.711-5.769
		c1.253-13.683-0.287-27.252-4.577-40.328c-6.735-20.53-19.603-37.948-37.213-50.375c-1.78-1.255-3.507-2.372-5.227-3.439
		c-43.328,5.342-78.554,28.26-97.699,60.729c0.826-0.406,1.627-0.816,2.498-1.218C99.797,136.753,109.031,134.015,118.523,132.597z"
		/>
	<path style="opacity:0.5;fill:#FFFFFF;" d="M232.452,181.243c-0.082,0.545-0.193,1.086-0.284,1.63
		c0.001,0.002,0.001,0.003,0.002,0.005C232.261,182.332,232.369,181.79,232.452,181.243z"/>
	<path style="fill:#FFFFFF;" d="M295.367,258.06c-0.738,0.361-1.448,0.726-2.219,1.083c-1.686,0.779-3.386,1.509-5.098,2.192
		c-11.987,4.778-24.602,7.197-37.577,7.197c-0.001,0-0.001,0-0.003,0c-7.038,0-14.108-0.733-21.013-2.182
		c-13.782-2.887-26.596-8.466-38.086-16.58c-5.592-3.949-10.751-8.489-15.439-13.487c-10.696-4.688-19.041-13.693-22.887-24.811
		c-0.118,0.514-0.246,1.026-0.356,1.541c-0.272,1.282-0.503,2.572-0.723,3.864c-0.107,0.623-0.231,1.242-0.326,1.867
		c-0.29,1.915-0.534,3.837-0.71,5.765c-1.253,13.686,0.287,27.255,4.577,40.33c6.735,20.53,19.604,37.945,37.213,50.372
		c2.036,1.436,3.996,2.694,5.949,3.881C240.135,316.792,275.795,293.007,295.367,258.06z"/>
	<path style="opacity:0.5;fill:#FFFFFF;" d="M151.966,216.878c-0.106,0.623-0.231,1.242-0.326,1.867
		C151.735,218.12,151.86,217.501,151.966,216.878z"/>
	<path style="opacity:0.5;fill:#FFFFFF;" d="M250.47,268.532c-7.039,0-14.109-0.736-21.013-2.182
		C236.362,267.798,243.432,268.532,250.47,268.532z"/>
	<path style="opacity:0.5;fill:#FFFFFF;" d="M152.69,213.014c0.109-0.516,0.238-1.027,0.356-1.541
		c-0.003-0.007-0.005-0.015-0.008-0.022C152.918,211.971,152.8,212.491,152.69,213.014z"/>
	<path style="fill:#FFFFFF;" d="M230.809,134.415c3.292,10.036,5.002,20.357,5.11,30.798c0.036,3.48-0.106,6.974-0.426,10.476
		c-0.368,4.023-0.994,8.021-1.84,11.974c0.793,3.229,1.26,6.585,1.26,10.058c0,11.79-4.859,22.434-12.667,30.077
		c0.245-0.078,0.494-0.146,0.738-0.226c1.269-0.413,2.523-0.866,3.774-1.329c0.572-0.212,1.15-0.407,1.718-0.629
		c1.808-0.708,3.598-1.46,5.361-2.274c12.479-5.757,23.46-13.875,32.638-24.127c14.411-16.096,23.062-35.949,25.017-57.413
		c0.295-3.23,0.437-6.232,0.437-9.176c0-1.374-0.035-2.745-0.092-4.114c-3.799-5.74-8.095-11.151-12.929-16.13
		c-20.095-20.701-47.334-32.102-76.698-32.102c-3.164,0-6.393,0.132-9.595,0.393c-0.918,0.075-1.818,0.189-2.729,0.279
		c0.938,0.62,1.873,1.234,2.834,1.912C210.745,95.578,223.915,113.405,230.809,134.415z"/>
	<path style="opacity:0.5;fill:#FFFFFF;" d="M167.859,69.999c0.218,0.077,0.431,0.165,0.648,0.244
		c0.012-0.003,0.024-0.005,0.036-0.008C168.316,70.152,168.086,70.079,167.859,69.999z"/>
	<path style="opacity:0.5;fill:#FFFFFF;" d="M164.793,68.974c-0.606-0.192-1.215-0.373-1.825-0.555
		C163.577,68.601,164.187,68.78,164.793,68.974z"/>
	<path style="opacity:0.5;fill:#FFFFFF;" d="M235.919,165.213c0.036,3.48-0.106,6.974-0.426,10.476
		C235.813,172.187,235.955,168.693,235.919,165.213z"/>
	<path style="opacity:0.5;fill:#FFFFFF;" d="M186.146,81.332L186.146,81.332c1.72,1.067,3.447,2.184,5.227,3.439
		C189.592,83.516,187.866,82.399,186.146,81.332z"/>
	<path style="opacity:0.5;fill:#FFFFFF;" d="M232.452,181.243c0.29-1.916,0.534-3.839,0.711-5.769
		C232.986,177.403,232.742,179.326,232.452,181.243z"/>
	<path style="opacity:0.5;fill:#FFFFFF;" d="M228.586,135.146c4.29,13.076,5.83,26.645,4.577,40.328
		c-0.177,1.93-0.421,3.853-0.711,5.769c-0.083,0.547-0.191,1.09-0.283,1.635c0.27,0.714,0.557,1.42,0.788,2.153
		c0.593-3.141,1.081-6.292,1.37-9.449c1.268-13.852-0.347-27.745-4.631-40.801c-6.576-20.044-19.413-38.095-37.65-50.963
		c-1.302-0.919-2.631-1.812-3.984-2.681c-0.637,0.071-1.283,0.118-1.916,0.196c1.721,1.067,3.447,2.184,5.227,3.439
		C208.983,97.198,221.85,114.616,228.586,135.146z"/>
	<path style="opacity:0.5;fill:#FFFFFF;" d="M230.809,134.415c3.292,10.038,5.002,20.357,5.11,30.798
		C235.81,154.771,234.101,144.451,230.809,134.415z"/>
	<path style="opacity:0.5;fill:#FFFFFF;" d="M226.758,226.243c0.572-0.212,1.15-0.406,1.718-0.629
		C227.908,225.836,227.33,226.031,226.758,226.243z"/>
	<path style="opacity:0.5;fill:#FFFFFF;" d="M167.859,69.999c-1.016-0.36-2.039-0.697-3.065-1.025
		C165.82,69.3,166.842,69.64,167.859,69.999z"/>
	<path style="opacity:0.5;fill:#FFFFFF;" d="M222.984,227.572c-0.245,0.08-0.493,0.148-0.738,0.226
		c-0.016,0.015-0.033,0.029-0.048,0.044C222.462,227.758,222.72,227.658,222.984,227.572z"/>
	<path style="opacity:0.5;fill:#FFFFFF;" d="M229.697,134.78c4.283,13.057,5.898,26.949,4.631,40.801
		c-0.289,3.158-0.777,6.308-1.37,9.449c0.272,0.861,0.478,1.748,0.695,2.632c0.846-3.953,1.472-7.951,1.84-11.974
		c0.32-3.501,0.462-6.995,0.426-10.476c-0.109-10.441-1.818-20.76-5.11-30.798c-6.893-21.009-20.064-38.836-38.088-51.553
		c-0.96-0.678-1.895-1.292-2.834-1.912c-0.609,0.06-1.218,0.119-1.824,0.186c1.353,0.869,2.682,1.762,3.984,2.681
		C210.284,96.685,223.121,114.736,229.697,134.78z"/>
	<path style="fill:#FFFFFF;" d="M153.284,265.571c-4.389-13.384-5.966-27.271-4.684-41.276c0.536-5.847,1.615-11.641,3.155-17.317
		c-0.67-2.982-1.054-6.072-1.054-9.257c0-2.907,0.295-5.746,0.856-8.488c-2.364-3.167-3.852-7.014-4.121-11.202
		c-11.313,5.651-21.344,13.273-29.82,22.742c-14.411,16.098-23.062,35.951-25.017,57.413c-0.223,2.447-0.332,4.744-0.385,7.003
		c21.327,32.545,58.099,54.101,99.831,54.101c0.821,0,1.63-0.045,2.447-0.062c-1.031-0.677-2.061-1.358-3.121-2.106
		C173.349,304.405,160.179,286.58,153.284,265.571z"/>
	<path style="opacity:0.5;fill:#FFFFFF;" d="M218.553,330.785c-0.08-0.026-0.159-0.056-0.24-0.083
		c-0.007,0.001-0.014,0.002-0.021,0.004C218.378,330.735,218.466,330.757,218.553,330.785z"/>
	<path style="opacity:0.5;fill:#FFFFFF;" d="M151.641,218.745c-0.29,1.915-0.534,3.836-0.71,5.765
		C151.107,222.582,151.351,220.66,151.641,218.745z"/>
	<path style="opacity:0.5;fill:#FFFFFF;" d="M152.69,213.014c-0.272,1.283-0.503,2.572-0.723,3.864
		C152.187,215.586,152.418,214.296,152.69,213.014z"/>
	<path style="opacity:0.5;fill:#FFFFFF;" d="M155.507,264.84c-4.29-13.076-5.83-26.645-4.577-40.33
		c0.176-1.928,0.421-3.85,0.71-5.765c0.095-0.625,0.219-1.244,0.326-1.867c0.221-1.292,0.452-2.581,0.723-3.864
		c0.111-0.523,0.228-1.043,0.348-1.564c-0.24-0.696-0.469-1.396-0.674-2.108c-1.241,4.987-2.136,10.017-2.598,15.061
		c-1.268,13.852,0.347,27.745,4.631,40.802c6.576,20.045,19.413,38.095,37.65,50.963c1.471,1.038,2.983,2.035,4.519,3.008
		c0.702-0.026,1.405-0.043,2.104-0.082c-1.953-1.187-3.913-2.445-5.949-3.881C175.111,302.785,162.242,285.37,155.507,264.84z"/>
	<path style="opacity:0.5;fill:#FFFFFF;" d="M218.553,330.785c1.275,0.416,2.558,0.803,3.847,1.169
		C221.111,331.587,219.827,331.203,218.553,330.785z"/>
	<path style="opacity:0.5;fill:#FFFFFF;" d="M154.396,265.205c-4.283-13.057-5.898-26.95-4.631-40.802
		c0.462-5.044,1.357-10.074,2.598-15.061c-0.224-0.78-0.429-1.567-0.608-2.364c-1.541,5.676-2.62,11.47-3.155,17.317
		c-1.282,14.005,0.295,27.892,4.684,41.276c6.894,21.009,20.065,38.834,38.088,51.551c1.06,0.748,2.09,1.429,3.121,2.106
		c0.692-0.014,1.384-0.026,2.072-0.052c-1.536-0.973-3.048-1.97-4.519-3.008C173.809,303.3,160.972,285.249,154.396,265.205z"/>
	<path style="fill:#FFFFFF;" d="M293.823,142.01c-2.002,21.971-10.855,42.288-25.604,58.763c-9.392,10.492-20.63,18.8-33.401,24.692
		c-5.453,2.518-11.136,4.522-16.952,6.036c-7.007,5.207-15.658,8.326-25.059,8.326c-4.086,0-8.024-0.612-11.759-1.697
		c0.312,0.302,0.618,0.61,0.935,0.908c0.556,0.524,1.108,1.053,1.677,1.564c0.954,0.858,1.935,1.684,2.921,2.504
		c0.505,0.42,0.998,0.854,1.512,1.264c1.511,1.206,3.05,2.376,4.629,3.492c11.228,7.927,23.748,13.377,37.216,16.201
		c6.747,1.414,13.656,2.131,20.533,2.131c14.491,0,28.519-3.086,41.698-9.174c1.801-0.832,3.48-1.681,5.116-2.546
		c8.441-16.307,13.476-34.852,14.065-54.688c0.733-24.701-5.256-47.922-17.085-67.457c0,0.099,0.006,0.198,0.006,0.297
		C294.269,135.641,294.123,138.712,293.823,142.01z"/>
	<path style="opacity:0.5;fill:#FFFFFF;" d="M181.983,239.037c-0.316-0.298-0.622-0.606-0.935-0.908
		c-0.018-0.005-0.036-0.009-0.054-0.014C181.318,238.428,181.654,238.728,181.983,239.037z"/>
	<path style="opacity:0.5;fill:#FFFFFF;" d="M292.168,257.018c-13.178,6.088-27.207,9.174-41.698,9.174c0.001,0,0.003,0,0.003,0
		C264.962,266.192,278.989,263.106,292.168,257.018z"/>
	<path style="opacity:0.5;fill:#FFFFFF;" d="M183.66,240.601c0.954,0.858,1.934,1.684,2.921,2.504
		C185.594,242.285,184.614,241.458,183.66,240.601z"/>
	<path style="opacity:0.5;fill:#FFFFFF;" d="M188.092,244.369c1.511,1.206,3.05,2.376,4.629,3.492
		C191.142,246.745,189.603,245.575,188.092,244.369z"/>
	<path style="opacity:0.5;fill:#FFFFFF;" d="M229.937,264.061c6.746,1.414,13.655,2.131,20.533,2.131
		C243.593,266.192,236.684,265.475,229.937,264.061z"/>
	<path style="opacity:0.5;fill:#FFFFFF;" d="M268.218,200.773c-9.392,10.492-20.63,18.798-33.401,24.692
		C247.588,219.573,258.826,211.265,268.218,200.773z"/>
	<path style="opacity:0.5;fill:#FFFFFF;" d="M250.473,268.532c12.975,0,25.59-2.419,37.577-7.197
		c-11.987,4.778-24.602,7.197-37.581,7.197C250.472,268.532,250.472,268.532,250.473,268.532z"/>
	<path style="opacity:0.5;fill:#FFFFFF;" d="M229.697,265.205c-13.449-2.819-26.288-8.367-37.65-16.391
		c-4.815-3.4-9.345-7.265-13.557-11.539c-0.862-0.312-1.722-0.626-2.558-0.992c4.688,4.998,9.848,9.538,15.439,13.487
		c11.49,8.114,24.304,13.692,38.086,16.58c6.903,1.446,13.973,2.182,21.013,2.182c12.978,0,25.594-2.419,37.581-7.197
		c1.712-0.683,3.412-1.413,5.098-2.192c0.771-0.357,1.481-0.722,2.219-1.083c0.329-0.588,0.654-1.179,0.974-1.774
		c-1.222,0.62-2.449,1.223-3.684,1.794C272.395,267.44,250.344,269.532,229.697,265.205z"/>
	<path style="opacity:0.5;fill:#FFFFFF;" d="M222.984,227.572c1.269-0.413,2.523-0.865,3.774-1.329
		C225.507,226.707,224.252,227.159,222.984,227.572z"/>
	<path style="opacity:0.5;fill:#FFFFFF;" d="M228.476,225.614c1.808-0.709,3.598-1.46,5.361-2.274
		C232.075,224.154,230.284,224.905,228.476,225.614z"/>
	<path style="opacity:0.5;fill:#FFFFFF;" d="M291.492,141.8c-1.955,21.464-10.606,41.317-25.017,57.413
		c-9.177,10.252-20.158,18.371-32.638,24.127c-1.763,0.814-3.554,1.565-5.361,2.274c-0.568,0.223-1.146,0.417-1.718,0.629
		c-1.251,0.464-2.505,0.916-3.774,1.329c-0.264,0.086-0.522,0.186-0.787,0.27c-0.626,0.611-1.28,1.194-1.943,1.766
		c4.845-1.406,9.558-3.121,14.073-5.204c12.63-5.828,23.854-14.173,33.02-24.411c14.071-15.717,23.285-35.86,25.31-58.088
		c0.279-3.058,0.442-6.15,0.442-9.281c0-0.769-0.035-1.529-0.052-2.293c-0.39-0.615-0.807-1.213-1.209-1.821
		c0.057,1.369,0.092,2.74,0.092,4.114C291.93,135.568,291.787,138.57,291.492,141.8z"/>
	<path style="opacity:0.5;fill:#FFFFFF;" d="M181.983,239.037c0.557,0.524,1.108,1.053,1.677,1.564
		C183.091,240.09,182.539,239.561,181.983,239.037z"/>
	<path style="opacity:0.5;fill:#FFFFFF;" d="M186.581,243.105c0.505,0.42,0.998,0.854,1.512,1.264
		C187.579,243.959,187.086,243.525,186.581,243.105z"/>
	<path style="opacity:0.5;fill:#FFFFFF;" d="M297.283,254.473C297.283,254.472,297.283,254.472,297.283,254.473
		c-1.635,0.864-3.315,1.714-5.115,2.546C293.968,256.187,295.648,255.337,297.283,254.473z"/>
	<path style="opacity:0.5;fill:#FFFFFF;" d="M294.263,132.327C294.263,132.327,294.263,132.327,294.263,132.327
		c0,0.099,0.006,0.197,0.006,0.297C294.269,132.525,294.263,132.426,294.263,132.327z"/>
	<path style="opacity:0.5;fill:#FFFFFF;" d="M250.473,266.192c0,0-0.002,0-0.003,0c-6.878,0-13.787-0.717-20.533-2.131
		c-13.467-2.823-25.988-8.274-37.216-16.201c-1.579-1.116-3.118-2.286-4.629-3.492c-0.514-0.41-1.006-0.844-1.512-1.264
		c-0.987-0.82-1.967-1.646-2.921-2.504c-0.569-0.511-1.12-1.039-1.677-1.564c-0.328-0.309-0.665-0.609-0.989-0.922
		c-0.849-0.248-1.677-0.54-2.504-0.839c4.211,4.274,8.742,8.139,13.557,11.539c11.362,8.024,24.201,13.572,37.65,16.391
		c20.647,4.327,42.698,2.235,62.961-7.125c1.235-0.571,2.462-1.174,3.684-1.794c0.323-0.599,0.629-1.209,0.942-1.814
		c-1.635,0.865-3.314,1.714-5.115,2.546C278.989,263.106,264.962,266.192,250.473,266.192z"/>
	<path style="opacity:0.5;fill:#FFFFFF;" d="M292.657,141.905c-2.025,22.228-11.239,42.371-25.31,58.088
		c-9.166,10.238-20.39,18.583-33.02,24.411c-4.516,2.084-9.229,3.798-14.073,5.204c-0.77,0.663-1.571,1.286-2.388,1.893
		c5.816-1.514,11.498-3.518,16.952-6.036c12.771-5.894,24.009-14.2,33.401-24.692c14.749-16.475,23.602-36.792,25.604-58.763
		c0.3-3.299,0.447-6.369,0.447-9.386c0-0.099-0.006-0.198-0.007-0.297c-0.404-0.667-0.798-1.338-1.216-1.996
		c0.017,0.765,0.052,1.525,0.052,2.293C293.099,135.755,292.936,138.847,292.657,141.905z"/>
	<path style="fill:#FFFFFF;" d="M90.726,253.876c0.357-2.719,0.82-5.41,1.387-8.07c0.284-1.33,0.593-2.651,0.929-3.964
		c4.026-15.755,11.772-30.274,22.833-42.632c7.044-7.867,15.126-14.506,24.115-19.821c2.41-1.425,4.903-2.729,7.442-3.962
		c0.645-11.046,9.782-19.812,20.99-19.812c3.643,0,7.069,0.926,10.057,2.555c4.479-1.623,9.289-2.555,14.329-2.555
		c1.147,0,2.274,0.082,3.399,0.172c-0.066-0.053-0.128-0.109-0.194-0.162c-1.514-1.209-3.057-2.382-4.64-3.5
		c-11.228-7.927-23.748-13.377-37.216-16.201c-6.749-1.414-13.658-2.131-20.536-2.131c-1.073,0-2.139,0.052-3.207,0.086
		c2.796,1.139,5.713,2.778,8.535,4.894c9.302,6.976,14.015,16.402,10.526,21.053c-3.488,4.651-13.856,2.766-23.158-4.21
		c-8.694-6.521-13.375-15.179-11.102-20.08c-7.989,1.504-15.781,3.963-23.289,7.432c-1.99,0.919-3.82,1.855-5.597,2.808
		c-8.736,16.18-13.58,34.558-13.58,54.216c0,22.585,6.311,43.724,17.259,61.749c0.071-1.234,0.146-2.471,0.264-3.765
		C90.395,256.602,90.547,255.236,90.726,253.876z"/>
	<path style="opacity:0.5;fill:#FFFFFF;" d="M196.012,155.625c-1.514-1.209-3.057-2.382-4.64-3.5
		C192.955,153.243,194.498,154.416,196.012,155.625z"/>
	<path style="opacity:0.5;fill:#FFFFFF;" d="M86.329,145.775C86.328,145.775,86.328,145.775,86.329,145.775
		c1.777-0.952,3.607-1.888,5.597-2.807C89.936,143.887,88.106,144.822,86.329,145.775z"/>
	<path style="opacity:0.5;fill:#FFFFFF;" d="M108.012,325.49c0.384,0.556,0.768,1.111,1.164,1.66
		C108.78,326.601,108.396,326.045,108.012,325.49z"/>
	<path style="opacity:0.5;fill:#FFFFFF;" d="M110.624,329.092c0.407,0.537,0.811,1.076,1.23,1.605
		C111.436,330.167,111.031,329.629,110.624,329.092z"/>
	<path style="opacity:0.5;fill:#FFFFFF;" d="M92.23,289.332c0.141,0.641,0.301,1.278,0.455,1.916
		C92.53,290.61,92.371,289.973,92.23,289.332z"/>
	<path style="opacity:0.5;fill:#FFFFFF;" d="M94.499,297.841c0.199,0.637,0.412,1.27,0.624,1.903
		C94.911,299.111,94.698,298.479,94.499,297.841z"/>
	<path style="opacity:0.5;fill:#FFFFFF;" d="M95.905,302.012c0.227,0.63,0.466,1.255,0.705,1.88
		C96.371,303.267,96.132,302.642,95.905,302.012z"/>
	<path style="opacity:0.5;fill:#FFFFFF;" d="M93.273,293.614c0.17,0.64,0.356,1.275,0.539,1.911
		C93.63,294.888,93.444,294.253,93.273,293.614z"/>
	<path style="opacity:0.5;fill:#FFFFFF;" d="M154.396,134.78c13.449,2.819,26.288,8.367,37.65,16.391
		c2.146,1.516,4.217,3.152,6.25,4.843c0.733,0.096,1.464,0.2,2.185,0.334c-2.496-2.156-5.065-4.228-7.76-6.132
		c-11.49-8.114-24.304-13.692-38.086-16.58c-6.907-1.448-13.977-2.182-21.016-2.182c-3.678,0-7.327,0.197-10.941,0.584
		c1.447,0.056,3.022,0.322,4.681,0.79C136.462,132.262,145.558,132.928,154.396,134.78z"/>
	<path style="opacity:0.5;fill:#FFFFFF;" d="M116.152,134.17c0.633-0.688,1.425-1.219,2.372-1.573
		c-9.492,1.418-18.726,4.157-27.579,8.246c-0.871,0.402-1.672,0.812-2.498,1.218c-0.354,0.6-0.703,1.202-1.045,1.808
		c1.337-0.685,2.682-1.34,4.035-1.965C99.459,138.198,107.765,135.649,116.152,134.17z"/>
	<path style="opacity:0.5;fill:#FFFFFF;" d="M117.618,200.773c8.476-9.469,18.507-17.091,29.82-22.742
		c-0.027-0.422-0.062-0.842-0.064-1.27c-11.65,5.754-22.049,13.649-30.628,23.231c-14.071,15.717-23.285,35.86-25.31,58.088
		c-0.162,1.773-0.269,3.561-0.344,5.358c0.37,0.587,0.744,1.171,1.124,1.751c0.053-2.259,0.162-4.556,0.385-7.003
		C94.556,236.724,103.207,216.871,117.618,200.773z"/>
	<path style="opacity:0.5;fill:#FFFFFF;" d="M109.176,327.15c0.472,0.654,0.96,1.298,1.449,1.942
		C110.136,328.448,109.648,327.804,109.176,327.15z"/>
	<path style="opacity:0.5;fill:#FFFFFF;" d="M96.61,303.892c0.286,0.746,0.577,1.49,0.88,2.229
		C97.187,305.382,96.896,304.638,96.61,303.892z"/>
	<path style="opacity:0.5;fill:#FFFFFF;" d="M92.23,289.332c-0.103-0.467-0.188-0.938-0.285-1.407
		c-0.004-0.005-0.008-0.009-0.012-0.014C92.03,288.385,92.125,288.859,92.23,289.332z"/>
	<path style="opacity:0.5;fill:#FFFFFF;" d="M93.812,295.524c0.222,0.774,0.446,1.548,0.686,2.317
		C94.258,297.073,94.035,296.299,93.812,295.524z"/>
	<path style="opacity:0.5;fill:#FFFFFF;" d="M92.684,291.248c0.19,0.791,0.38,1.581,0.589,2.366
		C93.064,292.829,92.875,292.038,92.684,291.248z"/>
	<path style="opacity:0.5;fill:#FFFFFF;" d="M115.875,199.21c-11.062,12.358-18.808,26.877-22.833,42.632
		c4.026-15.755,11.772-30.274,22.833-42.63c7.044-7.869,15.126-14.508,24.115-19.824
		C131.001,184.704,122.919,191.343,115.875,199.21z"/>
	<path style="opacity:0.5;fill:#FFFFFF;" d="M196.012,155.625c0.066,0.053,0.128,0.109,0.194,0.162
		c0.007,0.001,0.015,0.001,0.022,0.001C196.158,155.732,196.082,155.681,196.012,155.625z"/>
	<path style="opacity:0.5;fill:#FFFFFF;" d="M92.112,245.807c-0.567,2.659-1.03,5.35-1.387,8.07
		C91.082,251.157,91.545,248.466,92.112,245.807z"/>
	<path style="opacity:0.5;fill:#FFFFFF;" d="M95.123,299.744c0.254,0.758,0.511,1.516,0.782,2.268
		C95.633,301.26,95.377,300.503,95.123,299.744z"/>
	<path style="opacity:0.5;fill:#FFFFFF;" d="M198.297,156.014c-2.034-1.691-4.104-3.327-6.25-4.843
		c-11.362-8.024-24.201-13.572-37.65-16.391c-8.838-1.852-17.934-2.518-27.036-1.952c0.994,0.281,2.013,0.627,3.053,1.051
		c1.068-0.034,2.134-0.086,3.207-0.086c6.878,0,13.787,0.717,20.536,2.131c13.467,2.823,25.988,8.274,37.216,16.201
		c1.583,1.118,3.126,2.291,4.64,3.5c0.071,0.056,0.146,0.107,0.216,0.163C196.924,155.844,197.611,155.924,198.297,156.014z"/>
	<path style="opacity:0.5;fill:#FFFFFF;" d="M115.214,135.535c0.159-0.343,0.348-0.669,0.576-0.972
		c0.108-0.144,0.241-0.262,0.362-0.393c-8.387,1.48-16.692,4.029-24.716,7.735c-1.353,0.625-2.698,1.28-4.035,1.965
		c-0.359,0.635-0.726,1.264-1.073,1.905c1.777-0.953,3.607-1.888,5.597-2.807C99.433,139.498,107.225,137.039,115.214,135.535z"/>
	<path style="opacity:0.5;fill:#FFFFFF;" d="M116.746,199.993c8.579-9.582,18.977-17.477,30.628-23.231
		c0-0.031-0.005-0.062-0.005-0.093c0-0.419,0.039-0.828,0.063-1.241c-2.538,1.233-5.031,2.536-7.442,3.962
		c-8.989,5.315-17.071,11.955-24.115,19.824c-11.062,12.356-18.808,26.875-22.833,42.63c-0.336,1.313-0.645,2.634-0.929,3.964
		c-0.567,2.659-1.03,5.35-1.387,8.07c-0.178,1.36-0.33,2.726-0.455,4.099c-0.118,1.294-0.193,2.531-0.264,3.765
		c0.349,0.575,0.727,1.129,1.085,1.697c0.075-1.797,0.182-3.585,0.344-5.358C93.461,235.853,102.675,215.709,116.746,199.993z"/>
	<path style="opacity:0.25;fill:#FFFFFF;" d="M138.947,138.773c-2.821-2.116-5.739-3.755-8.535-4.894
		c-1.04-0.424-2.058-0.77-3.053-1.051c-1.659-0.468-3.234-0.735-4.681-0.79c-1.559-0.06-2.97,0.116-4.155,0.559
		c-0.947,0.354-1.739,0.885-2.372,1.573c-0.121,0.131-0.254,0.25-0.362,0.393c-0.228,0.304-0.417,0.63-0.576,0.972
		c-2.273,4.901,2.408,13.56,11.102,20.08c9.302,6.976,19.67,8.861,23.158,4.21C152.962,155.175,148.249,145.75,138.947,138.773z"/>
	<path style="opacity:0.5;fill:#FFFFFF;" d="M232.169,182.878c-0.001-0.002-0.001-0.003-0.002-0.005
		c-0.013,0.076-0.027,0.151-0.04,0.227C232.141,183.025,232.157,182.952,232.169,182.878z"/>
	<path style="opacity:0.5;fill:#FFFFFF;" d="M153.037,211.45c0.003,0.007,0.005,0.015,0.008,0.022
		c0.048-0.209,0.096-0.418,0.145-0.627C153.142,211.048,153.084,211.248,153.037,211.45z"/>
	<path style="opacity:0.5;fill:#FFFFFF;" d="M196.228,155.788c-0.007-0.001-0.015-0.001-0.022-0.001
		c0.429,0.345,0.843,0.708,1.267,1.059C197.054,156.498,196.653,156.129,196.228,155.788z"/>
	<path style="opacity:0.5;fill:#FFFFFF;" d="M157.348,173.737c-0.577,0.214-1.16,0.41-1.733,0.634
		C156.187,174.147,156.771,173.951,157.348,173.737z"/>
	<path style="opacity:0.5;fill:#FFFFFF;" d="M155.615,174.372c-1.807,0.708-3.597,1.458-5.359,2.272
		C152.018,175.83,153.808,175.08,155.615,174.372z"/>
	<path style="opacity:0.25;fill:#FFFFFF;" d="M187.397,167.598c-0.184-0.384-0.365-0.769-0.572-1.14
		c-0.216-0.389-0.452-0.766-0.692-1.139c-1.911-2.976-4.538-5.449-7.655-7.148c-2.989-1.628-6.414-2.555-10.057-2.555
		c-11.208,0-20.344,8.766-20.99,19.812c-0.024,0.413-0.063,0.822-0.063,1.241c0,0.031,0.005,0.062,0.005,0.093
		c0.002,0.428,0.037,0.848,0.064,1.27c0.269,4.188,1.757,8.035,4.121,11.202c1.325,1.776,2.915,3.336,4.725,4.617
		c0.323,0.229,0.655,0.443,0.991,0.654c0.334,0.209,0.663,0.423,1.009,0.613c3.008,1.657,6.462,2.604,10.138,2.604
		c11.627,0,21.053-9.426,21.053-21.053C189.474,173.415,188.714,170.347,187.397,167.598z"/>
	<path style="opacity:0.5;fill:#FFFFFF;" d="M70.056,153.721"/>
	<path style="opacity:0.5;fill:#FFFFFF;" d="M306.525,251.711c0.828-0.545,1.658-1.087,2.469-1.655
		C308.183,250.623,307.353,251.166,306.525,251.711z"/>
	<path style="opacity:0.5;fill:#FFFFFF;" d="M183.646,79.807c0.834,0.482,1.667,1.009,2.5,1.525h0
		C185.313,80.816,184.48,80.289,183.646,79.807z"/>
	<path style="opacity:0.5;fill:#FFFFFF;" d="M210.945,327.97c0.513,0.214,1.034,0.403,1.55,0.609
		C211.979,328.374,211.458,328.184,210.945,327.97z"/>
	<path style="opacity:0.5;fill:#FFFFFF;" d="M218.292,330.706c0.007-0.001,0.014-0.002,0.021-0.004
		c-0.721-0.237-1.437-0.489-2.153-0.743C216.87,330.212,217.577,330.469,218.292,330.706z"/>
	<path style="opacity:0.5;fill:#FFFFFF;" d="M204.465,324.975c0.473,0.238,0.946,0.473,1.421,0.703
		C205.41,325.448,204.937,325.212,204.465,324.975z"/>
	<path style="opacity:0.5;fill:#FFFFFF;" d="M199.278,322.202c1.701,0.982,3.437,1.893,5.187,2.772
		C202.715,324.095,200.979,323.185,199.278,322.202z"/>
	<path style="opacity:0.5;fill:#FFFFFF;" d="M212.495,328.579c1.214,0.483,2.435,0.945,3.665,1.38
		C214.931,329.522,213.708,329.064,212.495,328.579z"/>
	<path style="opacity:0.5;fill:#FFFFFF;" d="M294.17,128.171c-0.021-0.483-0.065-0.963-0.093-1.445
		C294.105,127.208,294.148,127.688,294.17,128.171z"/>
	<path style="opacity:0.5;fill:#FFFFFF;" d="M293.877,123.743c-0.051-0.578-0.124-1.152-0.184-1.729
		C293.753,122.59,293.827,123.164,293.877,123.743z"/>
	<path style="opacity:0.5;fill:#FFFFFF;" d="M300.331,252.811c-0.989,0.57-2.016,1.116-3.047,1.662c0,0,0,0,0,0
		C298.315,253.927,299.342,253.381,300.331,252.811z"/>
	<path style="opacity:0.5;fill:#FFFFFF;" d="M294.077,126.726c-0.058-0.996-0.113-1.992-0.2-2.984
		C293.964,124.734,294.019,125.731,294.077,126.726z"/>
	<path style="opacity:0.5;fill:#FFFFFF;" d="M294.17,128.171c0.061,1.382,0.089,2.768,0.093,4.155c0,0,0,0,0,0.001
		C294.259,130.939,294.23,129.553,294.17,128.171z"/>
	<path style="opacity:0.5;fill:#FFFFFF;" d="M83.762,147.175c0.829-0.479,1.703-0.937,2.566-1.4c0,0,0,0,0-0.001
		C85.465,146.238,84.592,146.696,83.762,147.175z"/>
	<path style="opacity:0.5;fill:#FFFFFF;" d="M71.531,152.547c-0.499,0.383-0.984,0.783-1.476,1.174
		C70.548,153.33,71.032,152.93,71.531,152.547z"/>
</g>
<path style="fill:#FFFFFF;" d="M245.784,45.716c-1.381-0.394-2.781-0.759-4.182-1.123c-1.535-0.399-3.082-0.778-4.641-1.14
	c-13.283-3.081-27.449-4.821-42.557-4.821c-20.58,0-39.39,3.753-56.509,10.089c-1.59,0.589-3.164,1.202-4.725,1.834
	c-1.48,0.6-2.946,1.22-4.4,1.858c-12.033,5.278-23.169,11.821-33.428,19.201c-1.397,1.005-2.778,2.025-4.142,3.06
	c-1.58,1.198-3.141,2.413-4.677,3.648c-16.694,13.413-30.843,28.874-42.552,44.184c-1.122,1.467-2.225,2.933-3.303,4.395
	c-0.948,1.287-1.877,2.57-2.791,3.85C12.115,166.845,0,199.784,0,199.784s12.85,46.541,48,89.601
	c8.118,9.945,17.426,19.697,28.041,28.654c15.979,13.483,34.92,25.14,57.22,32.887c1.381,0.48,2.763,0.959,4.171,1.408
	c1.448,0.462,2.919,0.897,4.395,1.326c15.882,4.616,33.356,7.277,52.576,7.277c15.662,0,30.318-1.858,44.019-5.154
	c1.522-0.366,3.026-0.76,4.524-1.161c1.368-0.367,2.728-0.745,4.076-1.14C355.11,321.807,400,199.784,400,199.784
	S354.773,76.813,245.784,45.716z M325.376,200.2c-0.403,13.569-2.689,26.593-6.561,38.838c-0.244,0.771-0.493,1.538-0.75,2.303
	c-0.251,0.747-0.521,1.484-0.784,2.226c0.066-0.057,0.132-0.114,0.198-0.172c-0.067,0.058-0.132,0.118-0.199,0.176
	c-15.243,43.014-50.554,75.556-94.393,86.088c0,0,0,0,0,0c-0.797,0.192-1.597,0.376-2.4,0.553c-0.726,0.16-1.443,0.342-2.174,0.49
	c0.08,0.026,0.159,0.057,0.24,0.083c-0.086-0.028-0.174-0.051-0.26-0.079c-8.481,1.716-17.255,2.619-26.246,2.619
	c-38.149,0-72.581-16.13-96.908-41.898c-0.549-0.581-1.116-1.144-1.654-1.735c-0.526-0.578-1.024-1.181-1.54-1.768
	c0.097,0.469,0.085,0.46-0.012-0.014c-20.653-23.49-33.219-54.256-33.219-87.919c0-13.2,1.986-26.08,5.81-38.318
	c0.254-0.813,0.549-1.612,0.819-2.42c0.246-0.734,0.485-1.471,0.745-2.2c-0.44,0.388-0.886,0.77-1.319,1.165
	c0.435-0.398,0.88-0.786,1.323-1.177c6.542-18.399,17.302-35.216,31.842-49.288c18.053-17.472,40.997-29.994,66.325-36.501
	c0.729-0.187,1.462-0.363,2.194-0.54c0.682-0.165,1.369-0.314,2.055-0.471c-0.217-0.079-0.191-0.09,0.036-0.008
	c7.477-1.703,15.134-2.918,22.933-3.553c3.581-0.29,7.191-0.439,10.734-0.439c31.994,0,61.757,12.029,84.251,33.895
	c0.63,0.612,1.265,1.217,1.883,1.845c0.209,0.212,0.428,0.409,0.635,0.622c0.381,0.392,0.733,0.806,1.108,1.203
	c-0.164-0.558-0.152-0.549,0.014,0.015C313.943,129.039,326.476,163.181,325.376,200.2z"/>
</svg>
