<?xml version="1.0" encoding="iso-8859-1"?>
<!-- Generator: Adobe Illustrator 17.1.0, SVG Export Plug-In . SVG Version: 6.00 Build 0)  -->
<!DOCTYPE svg PUBLIC "-//W3C//DTD SVG 1.1//EN" "http://www.w3.org/Graphics/SVG/1.1/DTD/svg11.dtd">
<svg version="1.1" id="Layer_1" xmlns="http://www.w3.org/2000/svg" xmlns:xlink="http://www.w3.org/1999/xlink" x="0px" y="0px"
	 viewBox="0 0 400 400" style="enable-background:new 0 0 400 400;" xml:space="preserve">
<g>
	<path d="M361.593,233.83c0,2.041,0,3.637,0,5.233c0,47.579,0.001,95.157-0.001,142.736c0,7.068-1.14,8.2-8.243,8.2
		c-30.499,0.002-60.998,0.003-91.497-0.002c-6.291-0.001-77.137,0.001-83.995,0.001c-43.512,0.002-87.024,0.002-130.536,0
		c-6.534,0-7.824-1.283-7.825-7.803c-0.004-47.714-0.002-95.428-0.002-143.142c0-1.595,0-3.19,0-5.223c-1.656,0-2.967,0-4.279,0
		c-9.489,0-18.984,0.185-28.461-0.149c-2.016-0.071-5.056-1.637-5.635-3.234c-0.573-1.58,0.79-4.756,2.31-6.05
		c7.94-6.763,16.2-13.151,24.348-19.669c55.345-44.274,110.691-88.547,166.034-132.823c6.61-5.288,6.643-5.291,13.493-0.153
		c20.812,15.611,41.627,31.218,62.443,46.823c1.069,0.802,2.166,1.566,4.001,2.89c0-5.01-0.013-9.372,0.003-13.733
		c0.022-5.792,1.463-7.282,7.114-7.29c11.522-0.017,23.044-0.017,34.566,0c5.654,0.008,7.11,1.497,7.115,7.287
		c0.014,16.673,0.055,33.346-0.046,50.018c-0.016,2.64,0.651,4.446,2.779,6.206c24.016,19.871,47.928,39.868,71.9,59.793
		c2.198,1.827,4.204,3.668,3.062,6.812c-1.141,3.141-3.875,3.309-6.726,3.295C383.085,233.798,372.654,233.83,361.593,233.83z"/>
</g>
<g>
	<path d="M350.889,32.485c-4.299,4.288-8.596,8.574-12.971,12.938c-10.731-10.363-23.725-15.924-38.893-15.926
		c-15.129-0.002-28.091,5.536-38.903,15.93c-4.345-4.35-8.658-8.668-12.973-12.988C275.024,3.612,323.627,4.047,350.889,32.485z"/>
	<path d="M318.276,64.844c-10.538-10.25-27.614-10.63-38.649,0.079c-4.326-4.32-8.651-8.64-12.978-12.961
		c16.756-17.507,47.021-18.169,64.632-0.123C326.966,56.154,322.652,60.467,318.276,64.844z"/>
	<path d="M311.941,71.525c-4.367,4.37-8.661,8.666-12.874,12.881c-4.238-4.238-8.563-8.563-12.892-12.892
		C292.318,64.742,304.729,64.044,311.941,71.525z"/>
</g>
</svg>
