<?xml version="1.0" encoding="iso-8859-1"?>
<!-- Generator: Adobe Illustrator 17.1.0, SVG Export Plug-In . SVG Version: 6.00 Build 0)  -->
<!DOCTYPE svg PUBLIC "-//W3C//DTD SVG 1.1//EN" "http://www.w3.org/Graphics/SVG/1.1/DTD/svg11.dtd">
<svg version="1.1" id="Layer_1" xmlns="http://www.w3.org/2000/svg" xmlns:xlink="http://www.w3.org/1999/xlink" x="0px" y="0px"
	 viewBox="0 0 400 400" style="enable-background:new 0 0 400 400;" xml:space="preserve">
<g>
	<path style="fill:#FFFFFF;" d="M204.6,235.972c-1.917-0.594-4.03-0.891-6.341-0.891c-4.889,0-9.182,1.205-12.88,3.615
		c-3.7,2.412-6.11,6.192-7.232,11.344c-0.463,2.18-0.479,4.195-0.049,6.043c0.429,1.85,1.254,3.452,2.477,4.805
		c1.221,1.355,2.824,2.427,4.805,3.22c1.981,0.793,4.293,1.19,6.935,1.19c2.311,0,4.54-0.38,6.687-1.14
		c2.145-0.758,4.094-1.833,5.845-3.22c1.749-1.387,3.235-3.038,4.458-4.954c1.222-1.915,2.097-4.028,2.625-6.341
		c0.529-2.444,0.545-4.573,0.05-6.39c-0.496-1.816-1.371-3.335-2.625-4.558C208.1,237.476,206.515,236.566,204.6,235.972z"/>
	<path style="fill:#FFFFFF;" d="M204.401,204.765c-3.962,0-7.529,1.057-10.699,3.17c-3.17,2.114-5.219,5.251-6.143,9.412
		c-0.463,2.18-0.446,4.047,0.049,5.598c0.496,1.552,1.338,2.824,2.527,3.814c1.189,0.991,2.625,1.734,4.309,2.23
		s3.483,0.743,5.399,0.743c3.83,0,7.249-1.055,10.254-3.17c3.005-2.113,5.036-5.648,6.093-10.601
		c0.726-3.567,0.149-6.323-1.734-8.272C212.575,205.74,209.222,204.765,204.401,204.765z"/>
	<path style="fill:#FFFFFF;" d="M324.676,221.904c-2.774,0-5.367,0.562-7.777,1.684c-2.411,1.123-4.557,2.66-6.439,4.607
		c-1.883,1.949-3.485,4.261-4.805,6.935c-1.323,2.675-2.313,5.566-2.972,8.669c-0.594,2.908-0.777,5.664-0.545,8.273
		c0.231,2.61,0.892,4.888,1.982,6.836c1.09,1.949,2.575,3.501,4.458,4.656c1.883,1.156,4.176,1.734,6.885,1.734
		c3.038,0,5.828-0.611,8.372-1.834c2.542-1.221,4.756-2.888,6.639-5.002c1.881-2.113,3.45-4.573,4.705-7.382
		c1.254-2.806,2.145-5.828,2.675-9.065c1.32-6.472,0.708-11.443-1.833-14.911C333.476,223.638,329.695,221.904,324.676,221.904z"/>
	<path style="fill:#FFFFFF;" d="M271.87,207.341c-1.917-1.717-4.723-2.575-8.422-2.575c-3.501,0-6.539,0.876-9.114,2.625
		c-2.575,1.751-4.805,4.079-6.688,6.984c-1.883,2.907-3.467,6.21-4.755,9.907c-1.288,3.7-2.328,7.465-3.121,11.294
		c-0.926,4.492-1.503,8.57-1.734,12.235c-0.232,3.666,0.05,6.787,0.843,9.363s2.145,4.574,4.062,5.994
		c1.915,1.421,4.557,2.131,7.925,2.131c3.765,0,6.968-0.925,9.61-2.775c2.641-1.848,4.887-4.225,6.737-7.132
		c1.848-2.906,3.352-6.175,4.508-9.808c1.154-3.632,2.095-7.199,2.824-10.7c0.792-3.765,1.353-7.446,1.684-11.047
		c0.329-3.599,0.164-6.818-0.496-9.659C275.073,211.337,273.785,209.059,271.87,207.341z"/>
	<path style="fill:#FFFFFF;" d="M324.667,125.843h-8.831v29.863h8.831c4.518,0,7.669-2.225,9.451-6.674
		c0.973-2.442,1.461-5.349,1.461-8.723c0-4.656-0.731-8.231-2.192-10.725C331.926,127.09,329.019,125.843,324.667,125.843z"/>
	<path style="fill:#FFFFFF;" d="M366.307,70.577H33.693C15.085,70.577,0,85.662,0,104.27v191.46
		c0,18.608,15.085,33.693,33.693,33.693h332.614c18.608,0,33.693-15.085,33.693-33.693V104.27
		C400,85.662,384.915,70.577,366.307,70.577z M156.254,117.896h9.561v37.531h22.848v8.226h-32.409V117.896z M81.552,269.26h-6.341
		l10.997-51.914H68.178l0.891-4.161c2.707-0.198,5.167-0.461,7.381-0.793c2.212-0.329,4.226-0.957,6.043-1.883
		c1.815-0.924,3.45-2.261,4.904-4.012c1.452-1.748,2.774-4.111,3.963-7.083h5.053L81.552,269.26z M99.046,125.998H75.919v10.524
		H96.19v7.947H75.919v19.185H66.42v-45.695h32.626V125.998z M110.061,157.382c-1.508-2.711-2.262-6.498-2.262-11.362v-28.125h9.716
		v28.103c0,3.143,0.371,5.438,1.114,6.885c1.155,2.564,3.67,3.847,7.547,3.847c3.856,0,6.362-1.282,7.516-3.847
		c0.742-1.447,1.114-3.742,1.114-6.885v-28.103h9.716v28.125c0,4.864-0.754,8.651-2.262,11.362c-2.81,4.967-8.171,7.45-16.084,7.45
		S112.891,162.349,110.061,157.382z M164.08,227.254c-0.396,2.84-0.892,5.614-1.486,8.322c-0.991,4.624-2.263,9.05-3.814,13.276
		c-1.553,4.227-3.534,7.959-5.944,11.194c-2.412,3.237-5.35,5.813-8.817,7.729c-3.467,1.915-7.613,2.873-12.434,2.873
		c-4.822,0-8.57-0.958-11.245-2.873c-2.675-1.916-4.542-4.508-5.597-7.777c-1.058-3.27-1.453-7.067-1.189-11.394
		c0.263-4.325,0.924-8.899,1.981-13.721c0.925-4.425,2.13-8.751,3.617-12.978c1.486-4.226,3.434-8.008,5.845-11.344
		c2.41-3.334,5.383-6.026,8.917-8.075c3.533-2.047,7.81-3.071,12.83-3.071c3.433,0,6.291,0.512,8.57,1.536
		c2.279,1.026,4.112,2.428,5.499,4.211c1.387,1.784,2.361,3.864,2.922,6.242c0.56,2.377,0.858,4.904,0.892,7.579
		C164.657,221.656,164.476,224.414,164.08,227.254z M222.433,216.455c-0.728,3.633-2.115,6.736-4.162,9.313
		c-2.048,2.575-4.92,4.69-8.619,6.341c3.567,1.387,6.125,3.601,7.679,6.638c1.551,3.039,1.897,6.606,1.04,10.7
		c-1.52,6.869-4.889,12.121-10.106,15.752c-5.219,3.633-11.559,5.449-19.022,5.449c-2.511,0-4.971-0.43-7.381-1.288
		c-2.411-0.857-4.475-2.145-6.192-3.864c-1.718-1.716-2.972-3.864-3.765-6.439c-0.793-2.577-0.827-5.581-0.099-9.016
		c0.924-4.161,2.757-7.876,5.498-11.146c2.74-3.27,6.291-5.662,10.651-7.183c-1.453-1.055-2.692-2.063-3.715-3.021
		c-1.025-0.957-1.818-1.997-2.378-3.121c-0.562-1.122-0.891-2.394-0.991-3.814c-0.099-1.42,0.082-3.186,0.545-5.301
		c0.528-2.378,1.536-4.622,3.022-6.736c1.486-2.113,3.302-3.946,5.449-5.499c2.145-1.551,4.523-2.757,7.133-3.617
		c2.608-0.858,5.266-1.254,7.975-1.189c2.641,0,5.168,0.331,7.579,0.991c2.41,0.661,4.458,1.685,6.143,3.072
		c1.684,1.387,2.888,3.154,3.615,5.301C223.059,210.924,223.092,213.483,222.433,216.455z M230.041,163.653h-32.409v-45.757h9.561
		v37.531h22.848V163.653z M282.173,227.254c-0.396,2.84-0.891,5.614-1.486,8.322c-0.991,4.624-2.263,9.05-3.814,13.276
		c-1.553,4.227-3.534,7.959-5.945,11.194c-2.411,3.237-5.35,5.813-8.817,7.729c-3.468,1.915-7.613,2.873-12.434,2.873
		c-4.822,0-8.57-0.958-11.244-2.873c-2.675-1.916-4.542-4.508-5.598-7.777c-1.058-3.27-1.453-7.067-1.19-11.394
		c0.264-4.325,0.925-8.899,1.982-13.721c0.924-4.425,2.13-8.751,3.615-12.978c1.487-4.226,3.434-8.008,5.846-11.344
		c2.41-3.334,5.382-6.026,8.916-8.075c3.532-2.047,7.81-3.071,12.83-3.071c3.434,0,6.292,0.512,8.57,1.536
		c2.278,1.026,4.111,2.428,5.498,4.211c1.388,1.784,2.361,3.864,2.924,6.242c0.56,2.377,0.857,4.904,0.891,7.579
		C282.751,221.656,282.57,224.414,282.173,227.254z M267.535,143.227v20.426h-9.499v-45.757h9.499v17.446h17.789v-17.446h9.499
		v45.757h-9.499v-20.426H267.535z M343.896,243.501c-0.793,3.567-1.981,7.002-3.567,10.304c-1.585,3.303-3.583,6.192-5.994,8.669
		c-2.413,2.477-5.219,4.458-8.422,5.944c-3.204,1.487-6.754,2.23-10.65,2.23c-3.633,0-6.953-0.809-9.957-2.427
		c-3.007-1.618-5.102-4.012-6.291-7.183l-6.043,28.434h-5.945l15.158-71.531h5.945l-1.883,9.016h0.198
		c1.189-1.65,2.608-3.136,4.26-4.458c1.651-1.32,3.368-2.41,5.152-3.27c1.783-0.858,3.582-1.519,5.399-1.981
		c1.816-0.461,3.55-0.694,5.201-0.694c4.162,0,7.562,0.694,10.205,2.081c2.641,1.387,4.622,3.286,5.944,5.696
		c1.32,2.411,2.063,5.267,2.23,8.57C345.001,236.204,344.688,239.737,343.896,243.501z M341.629,155.116
		c-3.314,5.691-8.429,8.537-15.347,8.537h-19.728v-45.757h19.728c2.838,0.042,5.199,0.373,7.083,0.993
		c3.211,1.055,5.809,2.991,7.798,5.805c1.594,2.277,2.682,4.74,3.262,7.388c0.58,2.649,0.87,5.174,0.87,7.574
		C345.296,145.741,344.074,150.894,341.629,155.116z"/>
	<path style="fill:#FFFFFF;" d="M153.776,207.341c-1.916-1.717-4.723-2.575-8.422-2.575c-3.501,0-6.538,0.876-9.114,2.625
		c-2.576,1.751-4.805,4.079-6.688,6.984c-1.882,2.907-3.467,6.21-4.755,9.907c-1.288,3.7-2.328,7.465-3.121,11.294
		c-0.926,4.492-1.503,8.57-1.733,12.235c-0.232,3.666,0.049,6.787,0.842,9.363c0.792,2.575,2.145,4.574,4.062,5.994
		c1.915,1.421,4.557,2.131,7.926,2.131c3.765,0,6.967-0.925,9.61-2.775c2.641-1.848,4.887-4.225,6.737-7.132
		c1.848-2.906,3.352-6.175,4.508-9.808c1.155-3.632,2.096-7.199,2.823-10.7c0.793-3.765,1.353-7.446,1.684-11.047
		c0.33-3.599,0.164-6.818-0.495-9.659C156.979,211.337,155.691,209.059,153.776,207.341z"/>
</g>
</svg>
